<?xml version="1.0" encoding="UTF-8" standalone="no"?>
<svg xmlns:rdf="http://www.w3.org/1999/02/22-rdf-syntax-ns#" xmlns="http://www.w3.org/2000/svg" height="1358pt" width="2461pt" version="1.1" xmlns:cc="http://creativecommons.org/ns#" xmlns:dc="http://purl.org/dc/elements/1.1/" viewBox="0 0 2461 1358">
<path d="m199.59 0h28.82c21.24 1.28 42.58 1.66 63.74 4.36 239.58 174.28 479.71 348.51 718.75 523.75 29.4 19.78 58.4 42.44 87 62.07 192.7-9.56 386-17.87 578.9-26.67 71.9-19.23 144.9-36.23 216.4-57.33 36.8-100.82 69.1-203.19 103.8-304.81 9.3-34.24 17.7-66.87 42.7-94.67 14.4-16.18 41.4-23.72 60.1-10.48 36.1 21.14 55.2 59.43 76.3 93.72 48 98.11 76.6 204.33 100 310.59 62.2 62.65 122.6 127.23 184.9 189.78v3.48c-2.5 6.03-10 6.79-15.6 8.65-43.3 16.09-88.2 31.45-134.9 32.21-8.2-2.33-17.1-0.98-24.7-5.4-39.4-23.16-78.7-46.52-117.6-70.61-4.7-2.8-10.4-0.87-15.3 0.17-237.9 57.07-474.6 119.17-713.2 173.82-0.6 1.11-1.1 2.51 0.3 3.36 99.8 76.48 202.2 149.77 303.6 224.41 111.4 84.2 225.6 165 337.3 248.7 4.9 3.9 4.2 14.5-3.1 15-51.5 16.6-104.3 29.9-158.3 33.9h-8.4c-5.9-0.6-12.4 0.1-17.1-4.1-177-87.5-354.2-174.7-530.9-263.1-114.3-53-225.6-112.94-339.3-167.18-98.91 29-200.17 52.95-302.82 65.58-142.87 21.8-287.93 29.6-432.22 22-68.72-6-138.44-12.19-204.2-34.72-35.27-13.32-76.98-33.87-84.56-74.63v-3.54c2.21-25.9 21.45-46.8 40.96-63.33 65.36-50.54 146.18-72.97 223.24-97.87 4.74-3.58 21.62 0.02 17.88-9.46-3.94-15.2 5.19-29.5 12.5-42.06 25.97-37.12 67.72-59.47 108.23-76.75 64.83-26.58 134.39-39.16 203.73-45.86-2.65-5.64-8.41-8.68-11.52-13.97-108.13-116.49-214.31-235.18-322.12-351.91-50.99-56.62-104.62-110.76-154.9-168.08 1.83-2.32 2.57-5.19 2.84-8.08 22.15-17.54 51.95-18.06 78.75-20.94z"/>
</svg>
