<?xml version="1.0" encoding="UTF-8"?>
<svg width="752pt" height="752pt" version="1.1" viewBox="0 0 752 752" xmlns="http://www.w3.org/2000/svg">
 <defs>
  <clipPath id="a">
   <path d="m139.21 262h472.79v219h-472.79z"/>
  </clipPath>
 </defs>
 <g clip-path="url(#a)">
  <path d="m607.49 329.07-99.285-2.2539h-120.92c0.15625-1.7109-0.058594-10.398-0.91406-31.266-0.96484-23.531-10.637-33.199-10.637-33.199s-9.6719 9.6719-10.637 33.199c-0.86328 20.867-1.0781 29.555-0.91797 31.266h-120.93l-99.277 2.2539s-4.5117 0.64453-4.5117 4.1914v8.3828l88.562 7.4102 76.148 4.1914s55.914 3.2266 58.988 3.2266c2.3047 0 2.9961 1.4805 3.2031 3.4375l0.085937 2.0664c0 0.050782 0 0.10547 0.003907 0.15625l3.7422 96.441-30.242 4.2734s-4.832 1.6094-4.832 5.1523v5.8164l35.078 3.5469 2.7617-4.0586 1.8984 5.5977 0.87109 1.6758 0.87109-1.6758 1.8945-5.5977 2.7656 4.0469 35.082-3.5469v-5.8164c0-3.543-4.8438-5.1523-4.8438-5.1523l-30.23-4.2734 3.7422-96.441c0.003907-0.046876 0.003907-0.097657 0.003907-0.15625l0.085937-2.0664c0.19922-1.957 0.89062-3.4375 3.1953-3.4375 3.0703 0 58.992-3.2266 58.992-3.2266l76.141-4.1914 88.559-7.4102v-8.3828c0.007813-3.5312-4.4961-4.1797-4.4961-4.1797zm-225.78-9.7188s-0.88672 4.4414-5.9844 4.6797c-5.1055-0.23828-5.9922-4.6797-5.9922-4.6797s-0.59375-14.309 0.58594-25.98c0.77344-7.5859 1.6211-12.562 5.4023-12.91 3.7852 0.34766 4.625 5.3242 5.4023 12.91 1.1836 11.672 0.58594 25.98 0.58594 25.98z"/>
 </g>
</svg>
