<?xml version="1.0" standalone="no"?>
<!DOCTYPE svg PUBLIC "-//W3C//DTD SVG 20010904//EN"
 "http://www.w3.org/TR/2001/REC-SVG-20010904/DTD/svg10.dtd">
<svg version="1.0" xmlns="http://www.w3.org/2000/svg"
 width="64.000000pt" height="64.000000pt" viewBox="0 0 64.000000 64.000000"
 preserveAspectRatio="xMidYMid meet">

<g transform="translate(0.000000,64.000000) scale(0.100000,-0.100000)"
fill="#000000" stroke="none">
<path d="M307 624 c-4 -4 -7 -19 -7 -33 0 -40 -67 -91 -119 -91 -30 0 -41 -4
-41 -15 0 -11 11 -15 38 -15 l37 0 0 -45 0 -45 -102 0 c-85 0 -103 -3 -103
-15 0 -10 10 -15 30 -15 25 0 30 -4 30 -23 0 -29 18 -47 45 -47 27 0 45 18 45
47 0 35 53 31 97 -7 44 -39 82 -39 126 0 44 38 97 42 97 7 0 -29 18 -47 47
-47 24 0 59 42 49 59 -4 5 8 11 26 13 18 2 33 8 33 13 0 6 -45 12 -105 15
l-105 5 0 43 c0 42 0 42 38 42 26 0 37 4 37 15 0 11 -11 15 -41 15 -51 0 -111
47 -119 93 -5 30 -20 44 -33 31z m60 -118 c25 -21 28 -31 28 -81 0 -50 -3 -60
-28 -81 -15 -13 -37 -24 -47 -24 -10 0 -32 11 -47 24 -25 21 -28 31 -28 81 0
50 3 60 28 81 15 13 37 24 47 24 10 0 32 -11 47 -24z m-237 -176 c0 -11 -7
-20 -15 -20 -8 0 -15 9 -15 20 0 11 7 20 15 20 8 0 15 -9 15 -20z m410 0 c0
-11 -7 -20 -15 -20 -8 0 -15 9 -15 20 0 11 7 20 15 20 8 0 15 -9 15 -20z"/>
<path d="M273 448 c2 -8 21 -13 47 -13 26 0 45 5 48 13 2 8 -11 12 -48 12 -37
0 -50 -4 -47 -12z"/>
<path d="M120 134 c-96 -87 -127 -124 -102 -124 13 0 232 199 232 210 0 24
-32 3 -130 -86z"/>
<path d="M306 213 c-8 -21 10 -41 24 -27 11 11 3 44 -10 44 -4 0 -11 -8 -14
-17z"/>
<path d="M391 218 c0 -14 205 -198 227 -206 37 -12 -1 35 -97 121 -106 94
-132 111 -130 85z"/>
<path d="M306 114 c-9 -24 -7 -77 4 -94 9 -13 11 -13 20 0 17 27 10 110 -10
110 -4 0 -11 -7 -14 -16z"/>
</g>
</svg>
