<?xml version="1.0" encoding="iso-8859-1"?>
<!-- Generator: Adobe Illustrator 19.0.0, SVG Export Plug-In . SVG Version: 6.00 Build 0)  -->
<svg version="1.1" id="Layer_1" xmlns="http://www.w3.org/2000/svg" xmlns:xlink="http://www.w3.org/1999/xlink" x="0px" y="0px"
	 viewBox="0 0 512 512" style="enable-background:new 0 0 512 512;" xml:space="preserve">
<g>
	<g>
		<path d="M247.467,0c-98.807,0-179.2,80.393-179.2,179.2s80.393,179.2,179.2,179.2s179.2-80.393,179.2-179.2S346.274,0,247.467,0z
			 M247.467,341.333c-89.404,0-162.133-72.73-162.133-162.133s72.73-162.133,162.133-162.133S409.6,89.796,409.6,179.2
			S336.87,341.333,247.467,341.333z"/>
	</g>
</g>
<g>
	<g>
		<path d="M503.467,392.533H8.533c-4.719,0-8.533,3.814-8.533,8.533v102.4C0,508.186,3.814,512,8.533,512h494.933
			c4.719,0,8.533-3.814,8.533-8.533v-102.4C512,396.348,508.186,392.533,503.467,392.533z M494.933,494.933H17.067V409.6h25.6
			l-0.009,17.067c0,4.71,3.814,8.533,8.533,8.533c4.71,0,8.533-3.814,8.533-8.533l0.009-17.067h34.133v34.133
			c0,4.719,3.814,8.533,8.533,8.533s8.533-3.814,8.533-8.533V409.6h34.133v17.067c0,4.719,3.814,8.533,8.533,8.533
			c4.719,0,8.533-3.814,8.533-8.533V409.6h34.133v34.133c0,4.719,3.814,8.533,8.533,8.533s8.533-3.814,8.533-8.533V409.6h34.133
			v17.067c0,4.719,3.814,8.533,8.533,8.533s8.533-3.814,8.533-8.533V409.6h34.133v34.133c0,4.719,3.814,8.533,8.533,8.533
			s8.533-3.814,8.533-8.533V409.6h34.133v17.067c0,4.719,3.814,8.533,8.533,8.533s8.533-3.814,8.533-8.533V409.6h34.133v34.133
			c0,4.719,3.814,8.533,8.533,8.533s8.533-3.814,8.533-8.533V409.6h34.15l-0.009,17.067c0,4.71,3.814,8.533,8.533,8.533
			c4.71,0,8.533-3.814,8.533-8.533l0.009-17.067h25.583V494.933z"/>
	</g>
</g>
<g>
	<g>
		<path d="M253.5,173.167L208.333,128l36.634-36.634c2.44-2.441,3.174-6.11,1.852-9.301c-1.314-3.191-4.437-5.265-7.885-5.265H153.6
			c-4.719,0-8.533,3.814-8.533,8.533v85.333c0,3.447,2.074,6.571,5.265,7.885c1.058,0.444,2.167,0.649,3.268,0.649
			c2.219,0,4.403-0.87,6.033-2.5l36.634-36.634l45.167,45.167c1.664,1.664,3.849,2.5,6.033,2.5c2.185,0,4.369-0.836,6.033-2.5
			C256.836,181.897,256.836,176.503,253.5,173.167z M162.133,150.067V93.867h56.201L162.133,150.067z"/>
	</g>
</g>
<g>
</g>
<g>
</g>
<g>
</g>
<g>
</g>
<g>
</g>
<g>
</g>
<g>
</g>
<g>
</g>
<g>
</g>
<g>
</g>
<g>
</g>
<g>
</g>
<g>
</g>
<g>
</g>
<g>
</g>
</svg>
