<?xml version="1.0" encoding="utf-8"?>
<!-- Generator: Adobe Illustrator 22.1.0, SVG Export Plug-In . SVG Version: 6.00 Build 0)  -->
<svg version="1.1" id="Layer_1" xmlns="http://www.w3.org/2000/svg" xmlns:xlink="http://www.w3.org/1999/xlink" x="0px" y="0px"
	 viewBox="0 0 512 512" style="enable-background:new 0 0 512 512;" xml:space="preserve">
<g>
	<path d="M391.6,211c-10.5-0.1-20.5,1.6-29.8,4.9l-23.1-38.6h57.9c9.3,0,16.9-7.5,16.9-16.9v-22.5c0-9.3-7.5-16.9-16.9-16.9h-31.8
		c-4.8,0-9.3,2-12.5,5.6l-26.4,29.3l-16-26.7c-3.1-5.1-8.6-8.2-14.5-8.2h-56.2c-6.2,0-11.2,5.1-11.2,11.2v11.2
		c0,6.2,5.1,11.2,11.2,11.2h46.7l13.5,22.5h-108c-12.4-16.2-31.6-28.1-70.2-28.1H82c-9.5,0-17.4,7.7-17.2,17.2
		c0.1,9.1,7.7,16.5,16.9,16.5H121c17.2,0,27.2,7.7,33.6,17.4l-7.9,14.4c-9.1-2.7-18.9-4-29-3.7c-47.3,1.7-85.5,40.4-86.6,87.8
		c-1.1,50.7,39.6,92.1,90,92.1c41.9,0,77.1-28.7,87.2-67.5h59.2c9.6,0,17.3-8,16.9-17.6c-1.5-33.1,12.3-65.9,39.5-87.9l8.8,14.6
		c-19.4,16.7-31.7,41.4-31.5,69c0.4,48.9,40.2,88.9,89.1,89.3c50.3,0.5,91.2-40.4,90.8-90.8C480.5,251.3,440.5,211.4,391.6,211z
		 M121,357.2c-31,0-56.2-25.2-56.2-56.2S90,244.8,121,244.8c3,0,5.9,0.2,8.8,0.7l-29.2,53c-6.2,11.2,2,25,14.8,25h57.2
		C163.8,343.3,144,357.2,121,357.2z M447.1,304.1c-1.5,28.5-24.6,51.6-53.1,53.1c-32.4,1.8-59.3-24.1-59.3-56.2
		c0-15,5.9-28.7,15.5-38.7l34.7,57.9c3.2,5.3,10.1,7,15.5,3.9l9.6-5.8c5.3-3.2,7-10.1,3.9-15.5l-34.2-56.9c3.7-0.8,7.4-1.1,11.2-1.1
		C423,244.8,448.8,271.7,447.1,304.1L447.1,304.1z"/>
</g>
</svg>
