<?xml version="1.0" encoding="UTF-8" standalone="no"?>
<!-- Created with Inkscape (http://www.inkscape.org/) -->

<svg
   width="200"
   height="200"
   viewBox="0 0 52.916666 52.916666"
   version="1.1"
   id="svg5"
   sodipodi:docname="route-line.svg"
   inkscape:version="1.1 (c68e22c387, 2021-05-23)"
   xmlns:inkscape="http://www.inkscape.org/namespaces/inkscape"
   xmlns:sodipodi="http://sodipodi.sourceforge.net/DTD/sodipodi-0.dtd"
   xmlns="http://www.w3.org/2000/svg"
   xmlns:svg="http://www.w3.org/2000/svg">
  <sodipodi:namedview
     id="namedview7"
     pagecolor="#ffffff"
     bordercolor="#666666"
     borderopacity="1.0"
     inkscape:pageshadow="2"
     inkscape:pageopacity="0.0"
     inkscape:pagecheckerboard="0"
     inkscape:document-units="mm"
     showgrid="false"
     units="px"
     inkscape:zoom="3.0716611"
     inkscape:cx="62.669675"
     inkscape:cy="116.38654"
     inkscape:window-width="1840"
     inkscape:window-height="1051"
     inkscape:window-x="71"
     inkscape:window-y="-9"
     inkscape:window-maximized="1"
     inkscape:current-layer="layer1" />
  <defs
     id="defs2" />
  <g
     inkscape:label="Layer 1"
     inkscape:groupmode="layer"
     id="layer1">
    <path
       style="color:#000000;fill:#000000;stroke-linecap:square;stroke-linejoin:round;-inkscape-stroke:none"
       d="m 42.537109,1.9863281 c -4.850309,-1.965e-4 -8.81819,3.9680496 -8.818359,8.8183599 -7.3e-5,1.789657 0.672358,3.363456 1.597656,4.757812 L 16.230469,33.277344 c -1.283332,-0.731179 -2.6885,-1.261783 -4.263672,-1.261719 -4.850311,1.7e-4 -8.816605,3.968049 -8.8164064,8.818359 1.693e-4,4.850055 3.966352,8.81819 8.8164064,8.81836 4.85031,1.97e-4 8.81819,-3.96805 8.818359,-8.81836 8.5e-5,-2.059823 -0.824757,-3.877636 -2.019531,-5.382812 l 18.875,-17.517578 c 1.42167,0.982427 3.047247,1.689528 4.896484,1.689453 4.85031,-1.69e-4 8.818556,-3.96805 8.81836,-8.818359 C 51.3553,5.9546328 47.387164,1.9864974 42.537109,1.9863281 Z m 0,3.3203125 c 3.056445,1.067e-4 5.497941,2.4416023 5.498047,5.4980474 1.24e-4,3.056611 -2.441436,5.499893 -5.498047,5.499999 -3.056777,1.24e-4 -5.49817,-2.443222 -5.498047,-5.499999 1.07e-4,-3.0566117 2.441436,-5.4981712 5.498047,-5.4980474 z M 11.96875,35.335937 c 3.056779,-1.24e-4 5.498172,2.441268 5.498047,5.498047 -1.07e-4,3.056612 -2.441436,5.498172 -5.498047,5.498047 -3.0564444,-1.07e-4 -5.4998933,-2.441602 -5.5,-5.498047 -1.252e-4,-3.056612 2.4433881,-5.49794 5.5,-5.498047 z"
       id="path846" />
  </g>
</svg>
